<svg width="408" height="128" viewBox="0 0 408 128" fill="none" xmlns="http://www.w3.org/2000/svg">
<g filter="url(#filter0_dd_7_142)">
<rect x="4" width="400" height="120" fill="#573AE9"/>
<g filter="url(#filter1_d_7_142)">
<path d="M153.858 68V55.66H149.698V53.18H160.998V55.66H156.818V68H153.858ZM163.418 68V53.18H172.498V55.66H166.378V59.08H171.558V61.56H166.378V65.52H172.718V68H163.418ZM180.142 68.28C179.156 68.28 178.189 68.0933 177.242 67.72C176.296 67.3467 175.462 66.8133 174.742 66.12L176.442 64.08C176.962 64.5733 177.556 64.9733 178.222 65.28C178.902 65.5733 179.562 65.72 180.202 65.72C180.976 65.72 181.562 65.5667 181.962 65.26C182.362 64.9533 182.562 64.54 182.562 64.02C182.562 63.6467 182.462 63.3533 182.262 63.14C182.076 62.9133 181.816 62.7133 181.482 62.54C181.149 62.3667 180.762 62.1933 180.322 62.02L178.362 61.16C177.869 60.96 177.389 60.6933 176.922 60.36C176.469 60.0133 176.089 59.58 175.782 59.06C175.489 58.54 175.342 57.92 175.342 57.2C175.342 56.3867 175.562 55.66 176.002 55.02C176.442 54.38 177.049 53.8733 177.822 53.5C178.596 53.1133 179.476 52.92 180.462 52.92C181.342 52.92 182.189 53.0867 183.002 53.42C183.816 53.7533 184.522 54.2267 185.122 54.84L183.622 56.68C183.156 56.2933 182.669 55.9933 182.162 55.78C181.656 55.5667 181.089 55.46 180.462 55.46C179.822 55.46 179.309 55.6 178.922 55.88C178.549 56.1467 178.362 56.5267 178.362 57.02C178.362 57.3667 178.469 57.6533 178.682 57.88C178.896 58.1067 179.176 58.3067 179.522 58.48C179.869 58.64 180.249 58.8067 180.662 58.98L182.602 59.76C183.202 60 183.722 60.3 184.162 60.66C184.616 61.02 184.962 61.4533 185.202 61.96C185.456 62.4667 185.582 63.08 185.582 63.8C185.582 64.6 185.362 65.34 184.922 66.02C184.496 66.7 183.876 67.2467 183.062 67.66C182.262 68.0733 181.289 68.28 180.142 68.28ZM190.576 68V55.66H186.416V53.18H197.716V55.66H193.536V68H190.576ZM204.668 68V53.18H207.628V65.52H213.648V68H204.668ZM221.251 68.28C219.944 68.28 218.791 67.9733 217.791 67.36C216.804 66.7333 216.031 65.84 215.471 64.68C214.911 63.52 214.631 62.1333 214.631 60.52C214.631 58.92 214.911 57.5533 215.471 56.42C216.031 55.2867 216.804 54.42 217.791 53.82C218.791 53.22 219.944 52.92 221.251 52.92C222.571 52.92 223.724 53.2267 224.711 53.84C225.697 54.44 226.471 55.3067 227.031 56.44C227.591 57.56 227.871 58.92 227.871 60.52C227.871 62.1333 227.591 63.52 227.031 64.68C226.471 65.84 225.697 66.7333 224.711 67.36C223.724 67.9733 222.571 68.28 221.251 68.28ZM221.251 65.72C221.984 65.72 222.617 65.5067 223.151 65.08C223.697 64.6533 224.117 64.0533 224.411 63.28C224.704 62.4933 224.851 61.5733 224.851 60.52C224.851 59.4667 224.704 58.5667 224.411 57.82C224.117 57.06 223.697 56.48 223.151 56.08C222.617 55.6667 221.984 55.46 221.251 55.46C220.517 55.46 219.877 55.6667 219.331 56.08C218.797 56.48 218.384 57.06 218.091 57.82C217.811 58.5667 217.671 59.4667 217.671 60.52C217.671 61.5733 217.811 62.4933 218.091 63.28C218.384 64.0533 218.797 64.6533 219.331 65.08C219.877 65.5067 220.517 65.72 221.251 65.72ZM237.121 68.28C235.788 68.28 234.581 67.9867 233.501 67.4C232.435 66.8133 231.588 65.9533 230.961 64.82C230.335 63.6867 230.021 62.3 230.021 60.66C230.021 59.4333 230.201 58.3467 230.561 57.4C230.935 56.44 231.448 55.6267 232.101 54.96C232.755 54.2933 233.508 53.7867 234.361 53.44C235.215 53.0933 236.135 52.92 237.121 52.92C238.188 52.92 239.095 53.12 239.841 53.52C240.601 53.9067 241.221 54.34 241.701 54.82L240.121 56.7C239.748 56.3533 239.335 56.06 238.881 55.82C238.441 55.58 237.888 55.46 237.221 55.46C236.395 55.46 235.668 55.6667 235.041 56.08C234.415 56.48 233.928 57.06 233.581 57.82C233.235 58.58 233.061 59.4933 233.061 60.56C233.061 61.64 233.221 62.5667 233.541 63.34C233.875 64.1 234.368 64.6867 235.021 65.1C235.675 65.5133 236.481 65.72 237.441 65.72C237.801 65.72 238.148 65.6733 238.481 65.58C238.815 65.4733 239.081 65.3333 239.281 65.16V62.24H236.661V59.82H241.941V66.5C241.435 66.9933 240.761 67.4133 239.921 67.76C239.081 68.1067 238.148 68.28 237.121 68.28ZM250.977 68.28C249.671 68.28 248.517 67.9733 247.517 67.36C246.531 66.7333 245.757 65.84 245.197 64.68C244.637 63.52 244.357 62.1333 244.357 60.52C244.357 58.92 244.637 57.5533 245.197 56.42C245.757 55.2867 246.531 54.42 247.517 53.82C248.517 53.22 249.671 52.92 250.977 52.92C252.297 52.92 253.451 53.2267 254.437 53.84C255.424 54.44 256.197 55.3067 256.757 56.44C257.317 57.56 257.597 58.92 257.597 60.52C257.597 62.1333 257.317 63.52 256.757 64.68C256.197 65.84 255.424 66.7333 254.437 67.36C253.451 67.9733 252.297 68.28 250.977 68.28ZM250.977 65.72C251.711 65.72 252.344 65.5067 252.877 65.08C253.424 64.6533 253.844 64.0533 254.137 63.28C254.431 62.4933 254.577 61.5733 254.577 60.52C254.577 59.4667 254.431 58.5667 254.137 57.82C253.844 57.06 253.424 56.48 252.877 56.08C252.344 55.6667 251.711 55.46 250.977 55.46C250.244 55.46 249.604 55.6667 249.057 56.08C248.524 56.48 248.111 57.06 247.817 57.82C247.537 58.5667 247.397 59.4667 247.397 60.52C247.397 61.5733 247.537 62.4933 247.817 63.28C248.111 64.0533 248.524 64.6533 249.057 65.08C249.604 65.5067 250.244 65.72 250.977 65.72Z" fill="#E7DF19"/>
</g>
</g>
<defs>
<filter id="filter0_dd_7_142" x="0" y="0" width="408" height="128" filterUnits="userSpaceOnUse" color-interpolation-filters="sRGB">
<feFlood flood-opacity="0" result="BackgroundImageFix"/>
<feColorMatrix in="SourceAlpha" type="matrix" values="0 0 0 0 0 0 0 0 0 0 0 0 0 0 0 0 0 0 127 0" result="hardAlpha"/>
<feOffset dy="4"/>
<feGaussianBlur stdDeviation="2"/>
<feComposite in2="hardAlpha" operator="out"/>
<feColorMatrix type="matrix" values="0 0 0 0 0 0 0 0 0 0 0 0 0 0 0 0 0 0 0.25 0"/>
<feBlend mode="normal" in2="BackgroundImageFix" result="effect1_dropShadow_7_142"/>
<feColorMatrix in="SourceAlpha" type="matrix" values="0 0 0 0 0 0 0 0 0 0 0 0 0 0 0 0 0 0 127 0" result="hardAlpha"/>
<feOffset dy="4"/>
<feGaussianBlur stdDeviation="2"/>
<feComposite in2="hardAlpha" operator="out"/>
<feColorMatrix type="matrix" values="0 0 0 0 0 0 0 0 0 0 0 0 0 0 0 0 0 0 0.25 0"/>
<feBlend mode="normal" in2="effect1_dropShadow_7_142" result="effect2_dropShadow_7_142"/>
<feBlend mode="normal" in="SourceGraphic" in2="effect2_dropShadow_7_142" result="shape"/>
</filter>
<filter id="filter1_d_7_142" x="145.698" y="52.92" width="115.9" height="23.36" filterUnits="userSpaceOnUse" color-interpolation-filters="sRGB">
<feFlood flood-opacity="0" result="BackgroundImageFix"/>
<feColorMatrix in="SourceAlpha" type="matrix" values="0 0 0 0 0 0 0 0 0 0 0 0 0 0 0 0 0 0 127 0" result="hardAlpha"/>
<feOffset dy="4"/>
<feGaussianBlur stdDeviation="2"/>
<feComposite in2="hardAlpha" operator="out"/>
<feColorMatrix type="matrix" values="0 0 0 0 0 0 0 0 0 0 0 0 0 0 0 0 0 0 0.25 0"/>
<feBlend mode="normal" in2="BackgroundImageFix" result="effect1_dropShadow_7_142"/>
<feBlend mode="normal" in="SourceGraphic" in2="effect1_dropShadow_7_142" result="shape"/>
</filter>
</defs>
</svg>
